<svg width="1000" height="1000" viewBox="0 0 1000 1000" fill="none" xmlns="http://www.w3.org/2000/svg">
<g clip-path="url(#clip0_1_2)">
<rect width="1000" height="1000" rx="48" fill="#FFF7E6"/>
<path d="M280 286H218V472H280V286ZM218 720H280V534H218V720ZM156 224H342V782H156V224ZM466 720H528V782H466V720ZM466 844H342V782H466V844ZM528 596H714V534H652V472H714V410H528V472H590V534H528V596ZM590 348V286H466V224H590V162H652V224H776V286H652V348H838V410H776V472H838V534H776V596H838V658H714V782H776V720H838V844H652V658H590V720H528V658H404V596H466V534H404V472H466V410H404V348H590Z" fill="#585041"/>
</g>
<defs>
<clipPath id="clip0_1_2">
<rect width="1000" height="1000" rx="48" fill="white"/>
</clipPath>
</defs>
</svg>
