<svg width="1000" height="1000" viewBox="0 0 1000 1000" fill="none" xmlns="http://www.w3.org/2000/svg">
<g clip-path="url(#clip0_1_2)">
<rect width="1000" height="1000" rx="50" fill="#FFFEFA"/>
<path d="M261 277H197V469H261V277ZM197 725H261V533H197V725ZM133 213H325V789H133V213ZM453 725H517V789H453V725ZM453 853H325V789H453V853ZM517 597H709V533H645V469H709V405H517V469H581V533H517V597ZM581 341V277H453V213H581V149H645V213H773V277H645V341H837V405H773V469H837V533H773V597H837V661H709V789H773V725H837V853H645V661H581V725H517V661H389V597H453V533H389V469H453V405H389V341H581Z" fill="#494536"/>
</g>
<defs>
<clipPath id="clip0_1_2">
<rect width="1000" height="1000" rx="50" fill="white"/>
</clipPath>
</defs>
</svg>
