<svg width="200" height="200" viewBox="0 0 200 200" fill="none" xmlns="http://www.w3.org/2000/svg">
<path fill-rule="evenodd" clip-rule="evenodd" d="M99.9998 11.8557C51.319 11.8557 11.8555 51.3192 11.8555 100C11.8555 110.702 13.7629 120.959 17.2563 130.449L27.0968 119.22L27.1061 119.228L36.4528 108.563C41.7649 102.502 49.4313 99.0231 57.4911 99.0174L76.3131 99.0042C78.8211 98.9427 81.1444 97.9604 82.9137 96.3539L116.019 58.5775C117.475 56.916 120.003 56.7495 121.664 58.2055L140.07 74.3361C141.732 75.7921 141.898 78.3193 140.442 79.9807L108.164 116.813L108.221 116.848C106.232 119.102 105.383 122.077 105.764 124.948L105.764 124.948L108.182 143.483C109.223 151.463 106.78 159.506 101.475 165.559L86.817 182.285C86.7055 182.412 86.5931 182.538 86.4799 182.663L83.0954 186.525C88.5664 187.588 94.2181 188.144 99.9998 188.144C148.681 188.144 188.144 148.681 188.144 100C188.144 51.3192 148.681 11.8557 99.9998 11.8557Z" fill="#808080"/>
<rect x="15" y="15" width="170" height="170" rx="85" stroke="#808080" stroke-width="10"/>
</svg>
