<svg width="512" height="512" viewBox="0 0 512 512" fill="none" xmlns="http://www.w3.org/2000/svg">
<g clip-path="url(#clip0)">
<path fill-rule="evenodd" clip-rule="evenodd" d="M255.999 5.27832C117.53 5.27832 5.27783 117.53 5.27783 256C5.27783 286.442 10.7033 315.617 20.6401 342.611L48.6305 310.671L48.6571 310.695L90.6586 262.767C95.9706 256.706 103.637 253.227 111.697 253.222L188.625 253.168C195.758 252.992 202.366 250.199 207.398 245.63L306.429 132.627C307.885 130.966 310.412 130.799 312.074 132.255L375.527 187.863C377.188 189.319 377.355 191.846 375.899 193.508L279.221 303.824L279.384 303.925C273.726 310.334 271.312 318.796 272.396 326.963L272.396 326.963L282.294 402.84C283.335 410.821 280.891 418.864 275.587 424.916L207.93 502.118C223.488 505.139 239.559 506.722 255.999 506.722C394.469 506.722 506.721 394.47 506.721 256C506.721 117.53 394.469 5.27832 255.999 5.27832Z" fill="black"/>
<rect x="5" y="5" width="502" height="502" rx="251" stroke="black" stroke-width="10"/>
</g>
<defs>
<clipPath id="clip0">
<path d="M0 0H512V512H0V0Z" fill="white"/>
</clipPath>
</defs>
</svg>
